<svg width="101" height="101" viewBox="0 0 101 101" fill="none" xmlns="http://www.w3.org/2000/svg">
<path d="M50.501 23.1764C45.7192 23.1765 41.0413 24.5718 37.0409 27.1914C33.0404 29.8109 29.8911 33.5408 27.9792 37.9237C26.0673 42.3067 25.4758 47.1523 26.2773 51.8665C27.0787 56.5807 29.2382 60.9586 32.4911 64.4635L29.9495 73.9455C29.7992 74.5053 29.8183 75.097 30.0045 75.6459C30.1906 76.1948 30.5353 76.6761 30.995 77.0291C31.4548 77.382 32.0088 77.5906 32.5872 77.6285C33.1655 77.6665 33.7421 77.532 34.244 77.2422L44.1876 71.5C47.5662 72.3982 51.0976 72.5651 54.5458 71.9896C57.9941 71.4142 61.2799 70.1096 64.1838 68.1631C67.0877 66.2165 69.5429 63.6728 71.3853 60.7017C73.2278 57.7307 74.4151 54.4007 74.868 50.9342C75.3209 47.4677 75.0289 43.9444 74.0116 40.5998C72.9944 37.2551 71.2751 34.1659 68.9688 31.5387C66.6625 28.9114 63.8221 26.8064 60.6374 25.3644C57.4527 23.9224 53.997 23.1764 50.501 23.1764Z" fill="#00C9FF"/>
<path opacity="0.5" d="M98.8982 49.8347C98.9301 48.6392 98.9631 47.4029 98.9084 46.108C98.7462 42.5051 97.196 39.1049 94.5826 36.6195C91.9691 34.1342 88.4953 32.7567 84.8889 32.7756C79.0961 19.5232 65.8631 10.2377 50.4998 10.2377C35.1365 10.2377 21.9035 19.5232 16.1113 32.7756C12.5039 32.7562 9.02904 34.1342 6.41535 36.6207C3.80166 39.1071 2.25211 42.509 2.09159 46.1129C2.0371 47.4019 2.07011 48.6392 2.10194 49.8347C2.13573 51.1043 2.17069 52.4176 2.10819 53.8894C1.95516 57.5815 3.27173 61.1838 5.76951 63.9071C8.26728 66.6304 11.7426 68.2527 15.4342 68.4185C15.6385 68.4273 15.8422 68.4317 16.0455 68.4318C17.8107 68.4328 19.5599 68.0967 21.199 67.4414C21.6156 67.3114 21.9979 67.0901 22.318 66.7935C22.6381 66.4968 22.8879 66.1324 23.0492 65.7269C23.2104 65.3214 23.279 64.885 23.2499 64.4495C23.2209 64.0141 23.0949 63.5906 22.8812 63.2101C20.2366 58.4858 18.8484 53.1618 18.8494 47.7476C18.8494 30.2957 33.0486 16.0972 50.4998 16.0972C67.951 16.0972 82.1502 30.2965 82.1502 47.7476C82.172 55.1349 79.6003 62.2956 74.8835 67.981C70.1667 73.6665 63.604 77.5161 56.3396 78.8586C55.5746 77.1265 54.2285 75.7162 52.534 74.8714C50.8394 74.0265 48.903 73.8003 47.0593 74.2317C45.2157 74.6632 43.5807 75.7252 42.437 77.2342C41.2933 78.7432 40.7128 80.6044 40.7957 82.496C40.8787 84.3877 41.62 86.1909 42.8914 87.594C44.1628 88.9971 45.8845 89.9119 47.7589 90.1802C49.6332 90.4486 51.5424 90.0536 53.1565 89.0637C54.7705 88.0737 55.988 86.5509 56.5984 84.7586C61.7586 83.9054 66.6838 81.984 71.0586 79.1174C75.4333 76.2509 79.1613 72.5024 82.0037 68.1119C82.9731 68.3238 83.9625 68.431 84.9549 68.4316C85.1586 68.4316 85.3629 68.4273 85.5676 68.4185C89.2585 68.252 92.733 66.6297 95.2303 63.9067C97.7275 61.1838 99.0439 57.5821 98.8912 53.8906C98.8291 52.4179 98.8639 51.1047 98.8982 49.8347Z" fill="#00C9FF"/>
<path opacity="0.3" d="M98.8974 49.8348C98.9293 48.6392 98.9623 47.4029 98.9076 46.108C98.7418 42.4164 97.1193 38.9411 94.3957 36.4437C91.6721 33.9463 88.0696 32.6305 84.3775 32.7846C83.7389 32.8136 83.103 32.8854 82.474 32.9994C82.0529 33.0743 81.6532 33.2405 81.3032 33.4863C80.9532 33.7321 80.6612 34.0516 80.4478 34.4223C80.2345 34.793 80.1048 35.206 80.0681 35.6321C80.0313 36.0583 80.0884 36.4873 80.2351 36.889C81.7949 41.1711 82.413 45.7392 82.0474 50.2818C81.6817 54.8245 80.3408 59.2348 78.1162 63.2123C77.9029 63.5928 77.7773 64.0161 77.7486 64.4514C77.7198 64.8866 77.7886 65.3228 77.9499 65.7281C78.1112 66.1333 78.361 66.4975 78.681 66.7939C79.001 67.0903 79.3832 67.3115 79.7996 67.4414C81.439 68.0968 83.1885 68.4329 84.9541 68.4316C85.1578 68.4316 85.3621 68.4273 85.5668 68.4185C89.2577 68.2521 92.7322 66.6297 95.2295 63.9067C97.7267 61.1838 99.0431 57.5821 98.8904 53.8906C98.8283 52.418 98.863 51.1047 98.8974 49.8348Z" fill="#00C9FF"/>
<path opacity="0.3" d="M80.2615 36.9748C80.2521 36.9463 80.2459 36.9162 80.2355 36.8883C80.0888 36.4865 80.0318 36.0575 80.0685 35.6313C80.1053 35.2052 80.2349 34.7922 80.4483 34.4215C80.6616 34.0508 80.9536 33.7313 81.3036 33.4855C81.6537 33.2397 82.0533 33.0735 82.4744 32.9986C83.1034 32.8846 83.7393 32.8128 84.3779 32.7838C84.549 32.7763 84.7188 32.776 84.8885 32.7748C79.0963 19.5232 65.8635 10.2379 50.5 10.2377V16.097C64.1719 16.0972 75.8449 24.8105 80.2615 36.9748Z" fill="#00C9FF"/>
<path opacity="0.3" d="M22.8812 63.2101C20.6571 59.2327 19.3167 54.8225 18.9514 50.2801C18.586 45.7378 19.2044 41.17 20.7642 36.8883C20.911 36.4865 20.968 36.0575 20.9313 35.6313C20.8945 35.2052 20.7649 34.7923 20.5515 34.4216C20.3381 34.0508 20.0462 33.7314 19.6961 33.4855C19.3461 33.2397 18.9465 33.0735 18.5254 32.9986C17.8943 32.8843 17.2562 32.8126 16.6154 32.7838C12.9233 32.6307 9.32112 33.9479 6.59857 36.4465C3.87603 38.9451 2.25526 42.4212 2.09159 46.1129C2.0371 47.4019 2.07011 48.6392 2.10194 49.8348C2.13573 51.1043 2.17069 52.4176 2.10819 53.8894C1.95516 57.5816 3.27173 61.1838 5.76951 63.9071C8.26728 66.6304 11.7426 68.2527 15.4342 68.4185C15.6385 68.4273 15.8422 68.4317 16.0455 68.4318C17.8107 68.4329 19.5599 68.0967 21.199 67.4414C21.6156 67.3115 21.9979 67.0901 22.318 66.7935C22.6381 66.4969 22.8879 66.1325 23.0492 65.7269C23.2104 65.3214 23.279 64.885 23.2499 64.4495C23.2209 64.0141 23.0949 63.5907 22.8812 63.2101Z" fill="#00C9FF"/>
<path opacity="0.5" d="M18.8471 47.7475C18.8428 44.0434 19.4907 40.3675 20.7612 36.8881C20.9079 36.4863 20.9649 36.0573 20.9282 35.6312C20.8914 35.205 20.7618 34.7921 20.5484 34.4214C20.3351 34.0507 20.0431 33.7312 19.6931 33.4854C19.343 33.2395 18.9434 33.0733 18.5223 32.9985C17.8912 32.8842 17.2531 32.8124 16.6123 32.7836C15.8186 32.7507 15.0234 32.7855 14.2356 32.8877C12.2301 35.9134 11.1074 39.438 10.9934 43.0662C10.9326 44.7234 10.9694 46.3113 11.0049 47.8471C11.0426 49.4781 11.0817 51.1647 11.0119 53.0551C10.7813 59.2986 13.3707 64.9442 17.476 68.3555C18.7526 68.2241 20.0047 67.9163 21.1967 67.4408C21.6133 67.3109 21.9956 67.0895 22.3157 66.7929C22.6358 66.4963 22.8856 66.1319 23.0469 65.7264C23.2081 65.3208 23.2767 64.8844 23.2476 64.449C23.2186 64.0135 23.0926 63.5901 22.8789 63.2096C20.2344 58.4853 18.8462 53.1615 18.8471 47.7475Z" fill="#00C9FF"/>
<path opacity="0.3" d="M82.1476 47.7475C82.1519 44.0434 81.504 40.3675 80.2336 36.8881C80.0868 36.4863 80.0298 36.0573 80.0666 35.6312C80.1033 35.205 80.2329 34.7921 80.4463 34.4214C80.6597 34.0507 80.9517 33.7312 81.3017 33.4854C81.6517 33.2395 82.0513 33.0733 82.4725 32.9985C83.1037 32.8842 83.7418 32.8124 84.3826 32.7836C85.1763 32.7507 85.9714 32.7855 86.7592 32.8877C88.7646 35.9134 89.8873 39.4381 90.0014 43.0662C90.0621 44.7235 90.0254 46.3113 89.9898 47.8471C89.9521 49.4781 89.9133 51.1647 89.9828 53.0551C90.215 59.2979 87.6256 64.9434 83.5205 68.3553C82.2439 68.2239 80.9917 67.9161 79.7996 67.4406C79.383 67.3107 79.0007 67.0893 78.6806 66.7927C78.3605 66.4961 78.1107 66.1317 77.9495 65.7262C77.7882 65.3206 77.7196 64.8842 77.7487 64.4488C77.7777 64.0134 77.9037 63.5899 78.1174 63.2094C80.7613 58.485 82.149 53.1613 82.1476 47.7475Z" fill="#00C9FF"/>
<path opacity="0.5" d="M50.7882 90.0105C55.1531 88.9787 57.8551 84.6038 56.8233 80.2389C55.7916 75.874 51.4167 73.172 47.0518 74.2038C42.6869 75.2356 39.9849 79.6105 41.0166 83.9754C42.0484 88.3403 46.4233 91.0423 50.7882 90.0105Z" fill="#00C9FF"/>
<path opacity="0.3" d="M48.9141 74.0166V90.2623C51.0684 90.2623 53.1345 89.4065 54.6578 87.8832C56.1811 86.3598 57.0369 84.2938 57.0369 82.1395C57.0369 79.9851 56.1811 77.9191 54.6578 76.3957C53.1345 74.8724 51.0684 74.0166 48.9141 74.0166Z" fill="#00C9FF"/>
<path opacity="0.3" d="M79.8047 67.4414C79.4195 67.3212 79.0632 67.1228 78.7583 66.8585C78.4533 66.5942 78.2063 66.2698 78.0326 65.9056C77.8589 65.5414 77.7623 65.1452 77.7489 64.7419C77.7355 64.3386 77.8056 63.9368 77.9547 63.5619C75.6787 67.5274 72.5667 70.9499 68.8347 73.5914C65.1027 76.233 60.8404 78.0303 56.3438 78.8586C57.1702 80.7226 57.2625 82.8299 56.6023 84.7592C61.7626 83.9059 66.6879 81.9844 71.0627 79.1178C75.4375 76.2511 79.1654 72.5025 82.0078 68.1119C81.2563 67.9492 80.5194 67.7249 79.8047 67.4414Z" fill="#00C9FF"/>
<path d="M65.2459 40H38.2497C37.0124 40 36 41.0124 36 42.2497C36 43.487 37.0124 44.4994 38.2497 44.4994H65.2459C66.4832 44.4994 67.4956 43.487 67.4956 42.2497C67.4956 41.0124 66.4832 40 65.2459 40Z" fill="#FAFAFA"/>
<path d="M56.2471 48.9987H38.2497C37.0124 48.9987 36 50.0111 36 51.2484C36 52.4857 37.0124 53.4981 38.2497 53.4981H56.2471C57.4845 53.4981 58.4968 52.4857 58.4968 51.2484C58.4968 50.0111 57.4845 48.9987 56.2471 48.9987Z" fill="#FAFAFA"/>
<path d="M50.5 23.1764V72.3188C57.0167 72.3188 63.2665 69.73 67.8745 65.122C72.4824 60.514 75.0712 54.2643 75.0712 47.7476C75.0712 41.2309 72.4824 34.9811 67.8745 30.3731C63.2665 25.7651 57.0167 23.1764 50.5 23.1764Z" fill="#7A7A7A" fill-opacity="0.33"/>
</svg>
