<svg width="100" height="100" viewBox="0 0 100 100" fill="none" xmlns="http://www.w3.org/2000/svg">
<g clip-path="url(#clip0_4654_11670)">
<path opacity="0.5" d="M91.3017 83.7661C96.9261 77.7315 99.9922 70.2714 99.9922 62.4987C99.9922 52.7731 95.188 43.9654 87.4935 37.7161C87.3177 59.999 66.3628 78.1221 40.6232 78.1221H23.2031C29.9407 89.2343 43.6307 96.8702 59.3713 96.8702H96.8675C98.1369 96.8702 99.2696 96.1086 99.7579 94.9368C100.246 93.7651 99.9727 92.4175 99.0743 91.5387L91.3017 83.7661Z" fill="#00C9FF"/>
<path d="M40.626 3.12976C18.2259 3.12976 0.00508288 18.5384 0.00508288 37.5013C0.00508288 45.2739 3.07118 52.7146 8.69561 58.7686L0.922958 66.5413C0.0246122 67.4396 -0.248798 68.7872 0.239434 69.9394C0.727666 71.1111 1.86036 71.8728 3.12977 71.8728H40.626C63.026 71.8728 81.2468 56.4642 81.2468 37.5013C81.2468 18.5384 63.026 3.12976 40.626 3.12976Z" fill="#00C9FF"/>
<path d="M59.3709 28.1272H21.8747C20.1561 28.1272 18.75 29.5333 18.75 31.2519C18.75 32.9705 20.1561 34.3766 21.8747 34.3766H59.3709C61.0895 34.3766 62.4956 32.9705 62.4956 31.2519C62.4956 29.5333 61.0895 28.1272 59.3709 28.1272Z" fill="#FAFAFA"/>
<path d="M46.8721 40.6259H21.8747C20.1561 40.6259 18.75 42.032 18.75 43.7506C18.75 45.4692 20.1561 46.8753 21.8747 46.8753H46.8721C48.5907 46.8753 49.9968 45.4692 49.9968 43.7506C49.9968 42.032 48.5907 40.6259 46.8721 40.6259Z" fill="#FAFAFA"/>
</g>
<defs>
<clipPath id="clip0_4654_11670">
<rect width="100" height="100" fill="white"/>
</clipPath>
</defs>
</svg>
